HIERARCHY
ROOT Hips
{
	OFFSET 0.000000 100.481300 0.000000
	CHANNELS 6 Xposition Yposition Zposition Xrotation Yrotation Zrotation
	JOINT Spine
	{
		OFFSET -0.279200 12.230698 -2.892100
		CHANNELS 3 Xrotation Yrotation Zrotation
		JOINT Spine1
		{
			OFFSET -0.325700 14.269203 -3.374200
			CHANNELS 3 Xrotation Yrotation Zrotation
			JOINT Spine2
			{
				OFFSET -0.372300 16.307602 -0.352600
				CHANNELS 3 Xrotation Yrotation Zrotation
				JOINT Neck
				{
					OFFSET -0.418800 17.814194 8.416900
					CHANNELS 3 Xrotation Yrotation Zrotation
					JOINT Head
					{
						OFFSET 0.000000 7.031097 3.806800
						CHANNELS 3 Xrotation Yrotation Zrotation
						JOINT HeadTop_End
						{
							OFFSET 0.000000 24.646606 12.978600
							CHANNELS 3 Xrotation Yrotation Zrotation
							End Site
							{
								OFFSET 0.000000 27.854965 0.000000
							}
						}
					}
				}
				JOINT LeftShoulder
				{
					OFFSET 16.952999 14.495407 -7.737500
					CHANNELS 3 Xrotation Yrotation Zrotation
					JOINT LeftArm
					{
						OFFSET 9.308998 -2.777710 0.208600
						CHANNELS 3 Xrotation Yrotation Zrotation
						JOINT LeftForeArm
						{
							OFFSET 29.972298 0.000000 0.000000
							CHANNELS 3 Xrotation Yrotation Zrotation
							JOINT LeftHand
							{
								OFFSET 26.026505 0.000000 0.000000
								CHANNELS 3 Xrotation Yrotation Zrotation
								JOINT LeftHandThumb1
								{
									OFFSET 12.240501 -7.147949 9.207150
									CHANNELS 3 Xrotation Yrotation Zrotation
									JOINT LeftHandThumb2
									{
										OFFSET 4.138618 -2.389435 2.389433
										CHANNELS 3 Xrotation Yrotation Zrotation
										JOINT LeftHandThumb3
										{
											OFFSET 2.726913 -1.574387 1.574386
											CHANNELS 3 Xrotation Yrotation Zrotation
											JOINT LeftHandThumb4
											{
												OFFSET 3.941010 -2.275345 2.275342
												CHANNELS 3 Xrotation Yrotation Zrotation
												End Site
												{
													OFFSET -0.005798 5.087799 0.009903
												}
											}
										}
									}
								}
								JOINT LeftHandIndex1
								{
									OFFSET 24.424698 -1.985611 5.953459
									CHANNELS 3 Xrotation Yrotation Zrotation
									JOINT LeftHandIndex2
									{
										OFFSET 6.426697 0.000000 0.000000
										CHANNELS 3 Xrotation Yrotation Zrotation
										JOINT LeftHandIndex3
										{
											OFFSET 5.337898 0.000000 0.000000
											CHANNELS 3 Xrotation Yrotation Zrotation
											JOINT LeftHandIndex4
											{
												OFFSET 4.409401 0.000000 0.000000
												CHANNELS 3 Xrotation Yrotation Zrotation
												End Site
												{
													OFFSET 0.000000 4.409363 0.014373
												}
											}
										}
									}
								}
								JOINT LeftHandMiddle1
								{
									OFFSET 23.810104 0.000000 0.000000
									CHANNELS 3 Xrotation Yrotation Zrotation
									JOINT LeftHandMiddle2
									{
										OFFSET 7.176498 0.000000 0.000000
										CHANNELS 3 Xrotation Yrotation Zrotation
										JOINT LeftHandMiddle3
										{
											OFFSET 6.774902 0.000000 0.000000
											CHANNELS 3 Xrotation Yrotation Zrotation
											JOINT LeftHandMiddle4
											{
												OFFSET 5.403328 0.000000 0.000000
												CHANNELS 3 Xrotation Yrotation Zrotation
												End Site
												{
													OFFSET -0.027702 5.403244 0.017414
												}
											}
										}
									}
								}
								JOINT LeftHandRing1
								{
									OFFSET 22.908401 -0.839279 -6.020567
									CHANNELS 3 Xrotation Yrotation Zrotation
									JOINT LeftHandRing2
									{
										OFFSET 6.337502 0.000000 0.000000
										CHANNELS 3 Xrotation Yrotation Zrotation
										JOINT LeftHandRing3
										{
											OFFSET 5.779297 0.000000 0.000000
											CHANNELS 3 Xrotation Yrotation Zrotation
											JOINT LeftHandRing4
											{
												OFFSET 4.965698 0.000000 0.000000
												CHANNELS 3 Xrotation Yrotation Zrotation
												End Site
												{
													OFFSET 0.000000 4.965668 0.016186
												}
											}
										}
									}
								}
								JOINT LeftHandPinky1
								{
									OFFSET 20.037003 -1.530319 -10.950146
									CHANNELS 3 Xrotation Yrotation Zrotation
									JOINT LeftHandPinky2
									{
										OFFSET 5.254700 0.000000 0.000000
										CHANNELS 3 Xrotation Yrotation Zrotation
										JOINT LeftHandPinky3
										{
											OFFSET 4.810204 0.000000 0.000000
											CHANNELS 3 Xrotation Yrotation Zrotation
											JOINT LeftHandPinky4
											{
												OFFSET 3.647202 0.000000 0.000000
												CHANNELS 3 Xrotation Yrotation Zrotation
												End Site
												{
													OFFSET 0.000000 3.647186 0.011889
												}
											}
										}
									}
								}
							}
						}
					}
				}
				JOINT RightShoulder
				{
					OFFSET -15.141001 14.495407 -7.737500
					CHANNELS 3 Xrotation Yrotation Zrotation
					JOINT RightArm
					{
						OFFSET -9.308998 -2.777710 0.208500
						CHANNELS 3 Xrotation Yrotation Zrotation
						JOINT RightForeArm
						{
							OFFSET -29.972300 0.000000 0.000000
							CHANNELS 3 Xrotation Yrotation Zrotation
							JOINT RightHand
							{
								OFFSET -26.026505 0.000000 0.000000
								CHANNELS 3 Xrotation Yrotation Zrotation
								JOINT RightHandThumb1
								{
									OFFSET -12.240601 -7.148026 9.207092
									CHANNELS 3 Xrotation Yrotation Zrotation
									JOINT RightHandThumb2
									{
										OFFSET -4.138618 -2.389435 2.389433
										CHANNELS 3 Xrotation Yrotation Zrotation
										JOINT RightHandThumb3
										{
											OFFSET -2.726974 -1.574417 1.574421
											CHANNELS 3 Xrotation Yrotation Zrotation
											JOINT RightHandThumb4
											{
												OFFSET -3.941010 -2.275345 2.275343
												CHANNELS 3 Xrotation Yrotation Zrotation
												End Site
												{
													OFFSET 0.005814 5.087799 0.009927
												}
											}
										}
									}
								}
								JOINT RightHandIndex1
								{
									OFFSET -24.424698 -1.985657 5.953444
									CHANNELS 3 Xrotation Yrotation Zrotation
									JOINT RightHandIndex2
									{
										OFFSET -6.426697 0.000000 0.000000
										CHANNELS 3 Xrotation Yrotation Zrotation
										JOINT RightHandIndex3
										{
											OFFSET -5.337898 0.000000 0.000000
											CHANNELS 3 Xrotation Yrotation Zrotation
											JOINT RightHandIndex4
											{
												OFFSET -4.409401 0.000000 0.000000
												CHANNELS 3 Xrotation Yrotation Zrotation
												End Site
												{
													OFFSET 0.000000 4.409363 0.014408
												}
											}
										}
									}
								}
								JOINT RightHandMiddle1
								{
									OFFSET -23.810097 0.000000 0.000000
									CHANNELS 3 Xrotation Yrotation Zrotation
									JOINT RightHandMiddle2
									{
										OFFSET -7.176498 0.000000 0.000000
										CHANNELS 3 Xrotation Yrotation Zrotation
										JOINT RightHandMiddle3
										{
											OFFSET -6.774902 0.000000 0.000000
											CHANNELS 3 Xrotation Yrotation Zrotation
											JOINT RightHandMiddle4
											{
												OFFSET -5.403328 0.000000 0.000000
												CHANNELS 3 Xrotation Yrotation Zrotation
												End Site
												{
													OFFSET 0.027702 5.403244 0.017457
												}
											}
										}
									}
								}
								JOINT RightHandRing1
								{
									OFFSET -22.908302 -0.839325 -6.020576
									CHANNELS 3 Xrotation Yrotation Zrotation
									JOINT RightHandRing2
									{
										OFFSET -6.337502 0.000000 0.000000
										CHANNELS 3 Xrotation Yrotation Zrotation
										JOINT RightHandRing3
										{
											OFFSET -5.779297 0.000000 0.000000
											CHANNELS 3 Xrotation Yrotation Zrotation
											JOINT RightHandRing4
											{
												OFFSET -4.965698 0.000000 0.000000
												CHANNELS 3 Xrotation Yrotation Zrotation
												End Site
												{
													OFFSET 0.000000 4.965668 0.016226
												}
											}
										}
									}
								}
								JOINT RightHandPinky1
								{
									OFFSET -20.037003 -1.530334 -10.950259
									CHANNELS 3 Xrotation Yrotation Zrotation
									JOINT RightHandPinky2
									{
										OFFSET -5.254700 0.000000 0.000000
										CHANNELS 3 Xrotation Yrotation Zrotation
										JOINT RightHandPinky3
										{
											OFFSET -4.810204 0.000000 0.000000
											CHANNELS 3 Xrotation Yrotation Zrotation
											JOINT RightHandPinky4
											{
												OFFSET -3.647202 0.000000 0.000000
												CHANNELS 3 Xrotation Yrotation Zrotation
												End Site
												{
													OFFSET 0.000000 3.647186 0.011917
												}
											}
										}
									}
								}
							}
						}
					}
				}
			}
		}
	}
	JOINT LeftUpLeg
	{
		OFFSET 15.427100 -6.655098 0.678600
		CHANNELS 3 Xrotation Yrotation Zrotation
		JOINT LeftLeg
		{
			OFFSET 4.081073 -39.591068 13.024000
			CHANNELS 3 Xrotation Yrotation Zrotation
			JOINT LeftFoot
			{
				OFFSET -4.081074 -37.707932 -15.979700
				CHANNELS 3 Xrotation Yrotation Zrotation
				JOINT LeftToeBase
				{
					OFFSET 5.346399 -15.068900 20.645000
					CHANNELS 3 Xrotation Yrotation Zrotation
					JOINT LeftToe_End
					{
						OFFSET 2.754700 0.931300 11.300900
						CHANNELS 3 Xrotation Yrotation Zrotation
						End Site
						{
							OFFSET 0.000000 11.669021 0.000000
						}
					}
				}
			}
		}
	}
	JOINT RightUpLeg
	{
		OFFSET -15.569500 -6.655098 0.678600
		CHANNELS 3 Xrotation Yrotation Zrotation
		JOINT RightLeg
		{
			OFFSET -4.081825 -39.591045 13.023800
			CHANNELS 3 Xrotation Yrotation Zrotation
			JOINT RightFoot
			{
				OFFSET 4.081824 -37.707954 -15.979600
				CHANNELS 3 Xrotation Yrotation Zrotation
				JOINT RightToeBase
				{
					OFFSET -5.346400 -15.068900 20.645000
					CHANNELS 3 Xrotation Yrotation Zrotation
					JOINT RightToe_End
					{
						OFFSET -2.754700 0.931300 11.300900
						CHANNELS 3 Xrotation Yrotation Zrotation
						End Site
						{
							OFFSET 0.000000 11.669021 0.000000
						}
					}
				}
			}
		}
	}
}
MOTION
Frames: 4
Frame Time: 0.033333
-5.691490 84.635635 -5.917307 5.477274 -52.541182 4.058078 7.444431 -1.300290 -1.144871 0.964420 -2.474661 -0.784932 0.986910 -2.474558 -0.784460 4.891189 2.079901 2.240306 -14.070588 4.540603 -4.232593 -0.000000 0.000002 0.000001 -11.366826 -21.417021 -19.691200 7.765505 19.303921 -44.546132 93.318074 -65.998677 98.367947 -9.860857 11.491578 7.177714 1.875131 -3.453253 12.268418 2.645572 20.733825 -1.697487 3.757035 16.389145 9.703178 -0.000001 0.000001 0.000000 17.231416 -2.718517 -24.091974 -0.086698 0.366032 -26.193345 -0.034338 0.337778 -39.692213 -0.000003 0.000002 -0.000001 6.775773 10.959938 -31.424126 0.347790 0.469660 -34.613537 0.420469 -0.157486 -47.272767 0.000002 -0.000003 -0.000001 -0.208810 18.873665 -38.529114 0.066719 0.167849 -42.609548 0.560206 0.377868 -56.044482 0.000003 -0.000000 0.000001 -8.431843 29.446264 -46.284750 0.258466 0.081722 -50.400656 0.354409 0.026057 -55.653508 -0.000005 -0.000001 0.000001 -10.863488 11.639978 21.836759 29.233203 -18.852027 56.349655 -126.649698 115.981666 126.710418 -21.407809 -5.971694 -6.422580 1.034066 3.961357 -15.796525 2.433536 -20.093730 1.992947 3.653134 -15.108532 -9.117773 -0.000005 -0.000001 -0.000002 16.716919 1.974823 4.934114 -0.104850 -0.339640 17.781228 -0.085723 -0.314273 26.566694 -0.000001 0.000001 0.000000 3.277561 -8.225248 13.900856 0.332688 -0.435110 27.227041 0.412815 0.165369 38.270264 0.000000 -0.000000 0.000004 -4.061834 -15.752115 22.888999 0.072293 -0.128377 32.460174 0.514874 -0.411463 42.652650 -0.000000 -0.000002 -0.000000 -13.896010 -23.465195 32.105892 0.225057 -0.075815 41.353899 0.309546 -0.037856 47.229877 0.000000 0.000001 -0.000001 -23.971210 -7.460226 29.126495 25.167439 -1.212656 -8.100860 -0.110063 3.964266 -20.644155 -0.502280 1.238660 0.186982 0.000000 -0.000001 -0.000000 -23.593137 -17.350432 -18.089474 39.855643 -4.327845 -7.687508 -21.885868 5.552263 17.183258 -0.566143 -0.995505 -0.396804 -0.000000 0.000000 0.000000 
-6.025630 84.627724 -6.129502 5.027844 -48.853994 3.507894 7.524048 -1.112024 -1.097893 1.122931 -2.128501 -0.620563 1.145419 -2.128383 -0.620088 5.226483 7.326125 2.856605 -13.980516 11.166747 -7.340737 0.000000 0.000001 -0.000000 -11.364888 -21.229365 -19.800189 8.244452 15.945550 -45.983750 91.534241 -63.313470 97.178743 -9.783593 10.818989 6.718185 1.542801 -4.057844 12.413848 2.646679 20.734656 -1.700594 3.757290 16.389008 9.703692 0.000000 -0.000001 0.000000 16.976019 -4.160113 -23.265508 -0.088192 0.364973 -25.848596 -0.039263 0.336802 -38.916915 0.000001 -0.000003 -0.000001 6.558450 9.949344 -31.249396 0.348050 0.467588 -34.480721 0.421661 -0.155194 -46.927231 0.000003 0.000001 -0.000001 -0.315787 18.292000 -38.791936 0.067340 0.168800 -42.689239 0.560552 0.380403 -56.100899 0.000004 -0.000001 0.000000 -8.331780 29.377542 -46.932740 0.257357 0.082755 -50.678457 0.353393 0.025628 -56.098468 0.000002 0.000001 -0.000000 -10.873810 12.243982 21.601996 30.263189 -18.698953 57.336795 -125.283168 117.294565 125.304041 -19.676609 -6.380795 -3.803455 1.268528 3.594426 -15.716175 2.411994 -20.039941 2.013137 3.644191 -15.058496 -9.094810 -0.000002 0.000001 0.000001 16.847148 1.298281 5.676689 -0.104463 -0.340866 18.291986 -0.078548 -0.317993 27.464563 -0.000000 -0.000001 -0.000002 3.411604 -8.982464 14.153398 0.333330 -0.437483 27.558580 0.414364 0.163963 38.930897 0.000002 -0.000003 -0.000001 -3.929472 -16.672449 22.839721 0.072713 -0.128749 32.580590 0.514584 -0.410094 42.953093 0.000001 -0.000002 -0.000002 -13.841944 -24.451521 31.621115 0.224944 -0.075924 41.383819 0.309169 -0.036950 47.374373 -0.000001 0.000001 0.000001 -24.679657 -10.648493 27.991814 24.418720 -1.480480 -8.108364 1.021753 3.843217 -20.760741 -0.499566 1.238666 0.188045 -0.000000 -0.000001 -0.000000 -22.246182 -19.861048 -18.652000 39.691073 -5.680440 -7.826766 -23.015523 5.176656 17.973183 -0.562335 -0.995479 -0.407233 0.000000 -0.000001 0.000000 
-6.360998 84.661461 -6.288236 4.537485 -45.170654 2.970410 7.609876 -0.899798 -1.034194 1.292425 -1.739206 -0.428534 1.314901 -1.739097 -0.428061 6.039291 12.567436 3.011241 -13.254704 17.553455 -10.411010 0.000000 -0.000000 0.000001 -11.424793 -21.030624 -20.160627 8.698736 13.192023 -47.359429 90.681000 -61.616393 96.859876 -9.743981 10.582122 6.433311 1.150709 -4.666688 12.804933 2.647146 20.735763 -1.703955 3.758165 16.388704 9.704204 0.000002 0.000000 0.000002 16.854170 -5.328700 -21.662790 -0.090656 0.362613 -25.071470 -0.047188 0.333980 -37.365069 0.000000 -0.000002 0.000001 6.336067 9.037050 -30.501378 0.348300 0.465471 -34.043114 0.423661 -0.152403 -46.041335 0.000001 0.000001 0.000000 -0.460018 17.769060 -38.599632 0.067841 0.168659 -42.536294 0.561251 0.384270 -55.757242 -0.000003 -0.000000 0.000000 -8.278182 29.361679 -47.248209 0.256242 0.083887 -50.820723 0.352140 0.025259 -56.324735 -0.000003 -0.000000 0.000001 -10.880154 12.852285 21.372391 31.234984 -18.720867 58.099023 -123.956295 118.454550 123.894659 -17.366077 -6.397191 -1.092586 1.508864 3.231725 -15.599708 2.388357 -19.981341 2.035216 3.633402 -14.997974 -9.067173 -0.000003 -0.000002 0.000001 16.993734 0.620269 6.365858 -0.104058 -0.341952 18.773852 -0.071563 -0.322459 28.313421 0.000000 0.000002 0.000001 3.555307 -9.719516 14.359909 0.333905 -0.439946 27.857145 0.414881 0.163948 39.539788 0.000002 -0.000001 0.000003 -3.802453 -17.549507 22.744260 0.073236 -0.129175 32.666858 0.515218 -0.409077 43.201008 0.000001 0.000000 0.000000 -13.810159 -25.365885 31.094901 0.224793 -0.076056 41.370575 0.308996 -0.036027 47.458169 0.000001 -0.000001 -0.000001 -25.426655 -13.515820 26.683543 23.549034 -1.940711 -8.005690 2.180825 3.694600 -20.816200 -0.496343 1.238692 0.190223 -0.000000 -0.000001 -0.000000 -20.799823 -22.551032 -19.128119 39.349222 -6.902785 -8.032218 -24.011078 4.791662 18.785587 -0.559433 -0.995481 -0.415841 0.000000 -0.000001 0.000000 
-6.678735 84.689217 -6.415715 4.206136 -41.610503 2.650266 7.688828 -0.644849 -0.968312 1.445860 -1.265985 -0.235615 1.468342 -1.265928 -0.235133 7.082338 17.528043 2.805201 -11.760653 23.325171 -13.401002 0.000000 0.000000 0.000000 -11.530235 -20.816304 -20.714487 9.214067 10.847251 -48.252599 90.726188 -60.867012 96.993495 -9.776672 10.852745 6.524608 0.748054 -5.230131 13.341454 2.647689 20.736888 -1.707535 3.759191 16.388337 9.704596 -0.000000 -0.000000 0.000003 16.900253 -6.106094 -19.424045 -0.093847 0.359113 -23.931212 -0.058791 0.327441 -35.174904 0.000002 0.000001 0.000002 6.137431 8.264404 -29.215796 0.348286 0.463421 -33.321074 0.426260 -0.148978 -44.657805 0.000004 0.000000 -0.000001 -0.646507 17.247944 -37.913694 0.068222 0.167329 -42.123491 0.559097 0.388475 -54.960589 0.000001 0.000001 0.000001 -8.333564 29.220707 -47.130727 0.255162 0.085033 -50.748473 0.350747 0.025096 -56.175161 -0.000003 0.000000 -0.000001 -10.876975 13.489005 21.061860 32.262812 -18.860915 58.750514 -124.749198 117.899078 124.295509 -13.209812 -5.920286 0.422158 1.730567 2.921505 -15.439631 2.362598 -19.917585 2.059261 3.620521 -14.925929 -9.034348 0.000000 -0.000000 0.000000 17.129696 0.039289 6.900796 -0.103771 -0.342733 19.176075 -0.066044 -0.326959 29.022792 -0.000001 -0.000001 -0.000000 3.686135 -10.340548 14.482830 0.334396 -0.442299 28.095927 0.415136 0.164340 40.046113 -0.000000 0.000001 -0.000004 -3.697443 -18.294213 22.612603 0.073831 -0.129554 32.711921 0.516496 -0.408494 43.380454 0.000000 -0.000004 0.000000 -13.799435 -26.137971 30.593541 0.224540 -0.076320 41.327115 0.308936 -0.035098 47.503966 -0.000001 -0.000001 0.000000 -26.348341 -15.972677 25.225588 22.606567 -2.570278 -7.845060 3.351484 3.531705 -20.855648 -0.492977 1.238703 0.192774 0.000000 -0.000002 0.000000 -19.475518 -25.098560 -19.577043 38.987748 -8.110186 -8.209214 -24.901382 4.402228 19.630614 -0.556844 -0.995452 -0.425703 -0.000000 -0.000001 0.000000 
